<svg width="606" height="498" viewBox="0 0 606 498" fill="none" xmlns="http://www.w3.org/2000/svg">
<path d="M547.639 381.85C613.099 310.439 636.903 166.131 547.639 146.294C415.275 116.879 480.691 220.68 155.872 166.13C-45.3716 132.334 -30.0929 332.258 81.4864 443.838C193.066 555.417 465.814 471.113 547.639 381.85Z" fill="#FCDDD4"/>
<mask id="mask0_413_1639" style="mask-type:alpha" maskUnits="userSpaceOnUse" x="0" y="140" width="606" height="358">
<path d="M547.639 381.849C613.099 310.438 636.903 166.131 547.639 146.294C415.275 116.879 480.691 220.679 155.872 166.13C-45.3716 132.334 -30.0929 332.258 81.4864 443.837C193.066 555.417 465.814 471.112 547.639 381.849Z" fill="#FCDDD4"/>
</mask>
<g mask="url(#mask0_413_1639)">
<path opacity="0.7" d="M-42.4902 349.019C-10.0273 306.807 75.9555 224.492 160.184 232.935C265.469 243.488 65.427 441.359 160.184 441.359C254.94 441.359 299.686 198.637 368.122 198.637C436.557 198.637 291.79 378.04 368.122 388.593C444.453 399.146 507.624 135.318 591.852 132.68C676.08 130.042 504.992 349.019 641.863 349.019" stroke="url(#paint0_linear_413_1639)" stroke-width="2"/>
<path d="M680.975 446.861C680.975 474.392 665.129 496.635 645.641 496.635H610.307C590.819 496.635 575.155 474.209 575.155 446.861C575.155 419.33 591.001 397.086 610.489 397.086C610.853 397.086 611.036 397.086 611.4 397.086H645.641C665.311 397.086 680.975 419.512 680.975 446.861Z" fill="#402B2B"/>
<path d="M404.135 446.314C404.135 473.845 388.289 496.088 368.801 496.088H333.467C313.979 496.088 298.316 473.662 298.316 446.314C298.316 418.783 314.161 396.539 333.649 396.539C334.014 396.539 334.196 396.539 334.56 396.539H368.801C388.471 396.539 404.135 418.783 404.135 446.314Z" fill="#F48767"/>
<path d="M683.341 442.121L541.095 441.756L557.487 432.093L665.128 432.275L683.341 442.121Z" fill="#402B2B"/>
<path d="M817.573 360.987L817.391 452.331L701.919 452.149L665.128 432.276L557.488 432.093L524.339 451.784L289.388 451.237C285.563 451.237 282.467 448.138 282.467 444.309L282.649 359.893L817.573 360.987Z" fill="#F36F49"/>
<path d="M565.864 381.771L381.545 381.407L381.91 214.216C381.91 207.47 387.374 202 394.295 202L566.41 202.365L565.864 381.771Z" fill="#F48767"/>
<path d="M853.271 382.501L566.047 381.954L566.411 202.547L841.432 203.094C848.171 203.094 853.635 208.564 853.635 215.492L853.271 382.501Z" fill="#F06A5B"/>
<path d="M427.446 446.314C427.446 473.845 443.109 496.088 462.597 496.088H497.749V479.314C510.68 479.314 521.244 464.546 521.244 446.314C521.244 428.081 510.863 413.313 497.931 413.313V396.539H462.779C443.291 396.722 427.628 418.965 427.446 446.314Z" fill="#F48767"/>
<path d="M526.888 446.679C526.888 469.287 513.956 487.52 497.929 487.337C481.901 487.337 469.152 469.105 469.152 446.497C469.152 423.889 482.083 405.656 498.111 405.839C513.956 405.839 526.888 424.071 526.888 446.679Z" fill="#F48767"/>
<path d="M497.932 473.48C487.368 473.48 478.99 461.446 478.99 446.496C478.99 431.545 487.55 419.694 498.114 419.694C508.678 419.694 517.056 431.727 517.056 446.678C517.056 461.629 508.495 473.48 497.932 473.48ZM497.932 430.634C491.739 430.634 486.639 437.744 486.639 446.496C486.639 455.247 491.739 462.54 497.932 462.54C504.124 462.54 509.224 455.43 509.224 446.678C509.224 437.744 504.306 430.634 497.932 430.634Z" fill="#F7A58D"/>
<path d="M497.931 496.271C478.443 496.271 462.779 473.845 462.779 446.496C462.779 419.148 478.625 396.722 498.113 396.722C517.601 396.722 533.265 419.148 533.265 446.496C533.265 473.845 517.237 496.453 497.931 496.271ZM498.113 405.838C482.085 405.838 469.154 424.07 469.154 446.496C469.154 469.104 481.903 487.337 497.931 487.337C513.959 487.337 526.89 469.104 526.89 446.678C526.89 424.07 513.959 405.838 498.113 405.838Z" fill="#F7A58D"/>
<path d="M502.848 446.496C502.848 442.667 500.662 439.75 498.112 439.75C495.562 439.75 493.377 442.85 493.195 446.496C493.195 450.325 495.38 453.242 497.93 453.242C500.662 453.425 502.848 450.325 502.848 446.496Z" fill="#5B2929"/>
<path d="M259.52 310.119C259.52 310.848 258.974 311.395 258.427 311.577C256.97 311.942 251.506 311.942 249.867 311.395C249.138 311.213 248.41 310.666 248.41 309.754C247.864 295.168 247.864 280.947 248.41 267.455C248.41 266.543 249.138 265.996 249.867 265.814C251.688 265.267 258.063 264.902 260.066 265.632C260.795 265.814 261.341 266.543 261.341 267.273C261.706 281.129 261.159 295.351 259.52 310.119Z" fill="#F69276"/>
<path d="M268.443 323.063C268.261 323.063 268.079 323.063 267.714 322.881L255.329 316.682C252.415 315.223 250.594 312.306 250.594 309.024L250.776 263.261C250.776 261.438 252.233 259.979 254.054 259.979H288.113C289.024 259.979 289.57 260.708 289.57 261.438C289.57 262.349 288.842 262.896 288.113 262.896H254.054C253.872 262.896 253.872 263.078 253.872 263.078L253.69 308.842C253.69 311.03 254.965 312.853 256.786 313.765L269.171 319.964C269.9 320.328 270.264 321.24 269.9 321.969C269.536 322.881 268.989 323.063 268.443 323.063Z" fill="#F69276"/>
<path d="M541.095 381.406C541.095 381.406 536.36 381.406 529.074 381.406H500.115C478.441 381.406 473.342 392.163 460.046 418.6L417.973 418.418C417.973 418.418 417.973 415.319 417.973 410.031L257.332 409.667C256.604 396.357 255.146 369.373 255.146 343.848C255.146 342.936 255.146 342.207 255.146 341.295C255.146 334.002 256.421 325.98 258.607 317.958C267.167 286.598 288.841 253.233 297.766 241.017C300.68 237.006 303.23 233.542 305.415 230.442C311.608 222.238 315.797 218.044 323.628 218.044L518.328 218.591C522.335 218.591 525.978 221.326 527.071 225.155C543.827 286.78 541.277 333.637 541.095 381.406ZM376.993 240.288C377.175 239.376 376.447 238.647 375.536 238.647L316.343 238.464C312.883 238.464 309.422 240.288 307.236 243.387C284.106 274.929 274.817 303.736 271.356 320.328L267.714 337.831C267.167 340.383 268.806 342.389 271.356 342.389H285.745C288.113 342.389 290.662 341.295 292.484 339.472L321.989 311.212C325.268 308.112 329.639 306.289 333.828 306.289H369.162L376.993 240.288Z" fill="#F36F49"/>
<path d="M407.594 318.505C406.319 324.34 404.862 330.357 403.587 336.738C402.676 341.114 398.851 344.213 394.48 344.396C336.926 346.401 289.207 346.583 255.149 344.031C255.149 343.119 255.149 342.39 255.149 341.478C255.149 334.185 256.424 326.163 258.609 318.141L407.594 318.505Z" fill="#F6977C"/>
<path d="M513.959 238.83L454.766 238.647C451.306 238.647 448.209 240.47 446.57 243.57C429.996 275.112 426.536 303.919 426.536 320.511V338.014C426.536 340.566 428.539 342.572 431.089 342.572H445.477C447.845 342.572 450.213 341.478 451.67 339.655L475.347 311.395C478.079 308.295 481.904 306.289 486.093 306.472H521.427L515.781 240.47C515.781 239.559 515.052 238.83 513.959 238.83Z" fill="#F36F49"/>
<path d="M541.095 381.406C541.095 381.406 536.36 381.406 529.074 381.406H500.115C478.441 381.406 473.342 392.163 460.046 418.6L417.973 418.418C417.973 418.418 417.973 415.319 417.973 410.031L257.332 409.667C256.604 396.357 255.146 369.373 255.146 343.848C289.205 346.4 337.106 346.4 394.478 344.212C398.849 344.03 402.674 340.93 403.585 336.555C404.86 330.173 406.317 323.974 407.592 318.322C415.423 284.957 423.984 261.073 435.276 235.183C436.186 233.177 434.729 230.807 432.544 230.807L305.415 230.442C311.608 222.238 315.797 218.044 323.628 218.044L518.328 218.591C522.335 218.591 525.978 221.326 527.071 225.155C543.827 286.78 541.277 333.637 541.095 381.406ZM521.607 306.471L515.961 240.47C515.961 239.558 515.05 238.829 514.139 238.829L454.946 238.647C451.486 238.647 448.389 240.47 446.75 243.57C430.176 275.112 426.716 303.919 426.716 320.51V338.013C426.716 340.566 428.719 342.571 431.269 342.571H445.657C448.025 342.571 450.393 341.477 451.85 339.654L475.527 311.394C478.259 308.294 482.084 306.289 486.273 306.471H521.607Z" fill="#F7A58D"/>
<path d="M533.994 376.666C533.994 379.401 531.808 381.407 529.076 381.407H500.117C478.443 381.407 473.344 392.164 460.048 418.601L417.975 418.419C417.975 418.419 417.975 415.319 417.975 410.032L418.157 336.191C418.157 299.543 424.714 276.388 442.017 239.741C444.567 234.272 450.213 230.807 456.223 230.807L518.877 230.99C520.334 230.99 521.427 231.901 521.791 233.178C534.176 280.217 534.176 356.793 533.994 376.666ZM521.609 306.472L515.963 240.471C515.963 239.559 515.052 238.83 514.142 238.83L454.948 238.647C451.488 238.647 448.392 240.471 446.752 243.57C430.178 275.112 426.718 303.919 426.718 320.511V338.014C426.718 340.566 428.721 342.572 431.271 342.572H445.66C448.027 342.572 450.395 341.478 451.852 339.655L475.529 311.394C478.261 308.295 482.086 306.289 486.275 306.472H521.609Z" fill="#F58A6B"/>
<path d="M513.595 241.017L454.766 240.835C452.216 240.835 449.849 242.294 448.574 244.482C431.453 277.118 428.721 306.107 428.721 320.328V337.831C428.721 339.108 429.814 340.202 431.089 340.202H445.477C447.299 340.202 448.938 339.472 450.031 338.196L473.708 309.936C476.804 306.289 481.358 304.102 486.275 304.102H519.059L513.595 241.017ZM513.959 238.83C514.87 238.83 515.781 239.559 515.781 240.47L521.427 306.472H486.093C481.904 306.472 478.079 308.295 475.347 311.395L451.67 339.655C450.213 341.478 447.845 342.572 445.477 342.572H431.089C428.539 342.572 426.536 340.566 426.536 338.014V320.511C426.536 303.919 429.996 275.112 446.57 243.57C448.209 240.47 451.306 238.647 454.766 238.647L513.959 238.83Z" fill="#F7A58D"/>
<path d="M418.155 375.208V410.031L354.591 409.849C355.319 400.733 356.959 391.981 359.691 383.777C360.783 380.495 363.515 378.125 366.976 377.578C381 375.937 398.849 375.208 418.155 375.208ZM289.569 409.849H258.061C257.514 402.192 256.968 389.793 256.421 375.755C264.071 376.119 271.174 376.848 277.549 377.76C281.009 378.307 283.741 380.677 284.834 383.959C287.384 391.981 288.841 400.733 289.569 409.849Z" fill="#F6977C"/>
<path d="M417.974 445.038L270.628 444.673C260.611 444.673 252.415 436.469 252.415 426.441V423.341C252.415 420.424 254.783 418.236 257.515 418.236L417.791 418.601L417.974 445.038Z" fill="#F6977C"/>
<path d="M445.112 445.038H417.974V418.601H459.683L455.129 437.016C454.036 441.756 449.847 445.038 445.112 445.038Z" fill="#F7A58D"/>
<path d="M509.952 348.589C503.759 348.771 491.738 350.048 491.738 354.423C491.738 358.799 502.302 360.258 510.862 360.258C519.423 360.258 520.333 355.517 521.062 353.512C521.608 351.506 522.155 348.407 509.952 348.589Z" fill="#F6977C"/>
<path d="M509.405 353.329C512.319 353.329 515.415 352.418 516.872 350.959C515.779 350.412 514.14 349.865 511.59 349.865C506.855 349.865 499.205 350.412 495.198 352.235C495.745 352.6 497.202 353.329 499.569 353.329C502.484 353.329 506.308 353.329 509.405 353.329Z" fill="#F47B58"/>
<path d="M497.201 356.794C496.108 356.794 495.562 356.976 495.38 357.158C498.658 358.617 504.669 359.164 507.583 359.164C511.772 359.164 514.686 359.164 515.597 358.252C514.868 357.705 513.229 356.794 511.59 356.794C509.404 356.976 498.658 356.794 497.201 356.794Z" fill="#F47B58"/>
<path d="M417.974 410.214C417.974 415.501 417.974 418.601 417.974 418.601L257.879 418.236C257.879 418.236 257.697 415.136 257.333 409.849L417.974 410.214Z" fill="#F58A6B"/>
<g opacity="0.2">
<path d="M348.944 373.384V408.208L295.215 408.026V373.202C295.215 369.008 299.04 365.727 303.775 365.727H340.566C345.12 365.909 348.944 369.373 348.944 373.384Z" fill="#F16036"/>
</g>
<path d="M277.184 406.932H265.892C262.978 406.932 260.428 404.562 260.428 401.462V395.81C260.428 392.893 262.796 390.341 265.892 390.341H277.184C280.099 390.341 282.648 392.711 282.648 395.81V401.462C282.648 404.562 280.099 406.932 277.184 406.932Z" fill="white"/>
<path d="M384.099 407.297H372.807C369.893 407.297 367.343 404.927 367.343 401.827V396.175C367.343 393.258 369.711 390.706 372.807 390.706H384.099C387.014 390.706 389.563 393.076 389.563 396.175V401.827C389.563 404.745 387.196 407.297 384.099 407.297Z" fill="white"/>
<path d="M456.951 310.483C456.951 311.213 456.405 311.76 455.859 311.942C448.755 312.671 441.288 312.671 433.638 311.76C432.728 311.577 432.181 311.03 432.181 310.119C431.635 295.533 431.635 281.312 432.181 267.82C432.181 266.908 432.91 266.361 433.638 266.179C441.47 265.267 449.302 265.267 457.498 266.179C458.226 266.361 458.773 267.09 458.773 267.82C459.319 281.494 458.591 295.715 456.951 310.483Z" fill="#F7A58D"/>
<path d="M428.722 323.428C428.176 323.428 427.63 323.064 427.447 322.517C427.083 321.788 427.447 320.876 428.176 320.511L440.561 314.495C442.382 313.583 443.657 311.577 443.657 309.572L443.839 263.808C443.839 263.626 443.657 263.626 443.657 263.626H436.008C435.097 263.626 434.551 262.897 434.551 262.168C434.551 261.256 435.279 260.709 436.008 260.709H443.657C445.479 260.709 446.936 262.168 446.936 263.991L446.753 309.754C446.753 313.036 444.932 315.953 442.018 317.412L429.633 323.428C429.087 323.428 428.904 323.428 428.722 323.428Z" fill="#F69276"/>
<path d="M345.189 447.197L293.646 447.085L293.679 431.587L345.223 431.699L345.189 447.197Z" fill="#F8B4A0"/>
<path opacity="0.6" d="M435.628 235.734C424.335 261.624 415.957 285.509 407.943 318.874L258.959 318.509C267.519 287.15 289.193 253.784 298.117 241.569C301.031 237.558 303.581 234.093 305.767 230.994L432.896 231.359C435.081 231.541 436.538 233.729 435.628 235.734Z" fill="url(#paint1_linear_413_1639)"/>
<path d="M194.305 253.535C194.305 253.535 190.099 384.393 194.19 531.503C194.19 531.503 206.462 543.134 229.714 535.38C229.714 535.38 229.498 371.685 235.742 306.638C235.742 306.638 265.022 430.271 302.053 537.319C302.053 537.319 326.812 542.057 335.639 528.057C335.639 528.057 285.69 354.669 278.37 254.944L194.305 253.535Z" fill="url(#paint2_linear_413_1639)"/>
<path d="M194.619 254.944H278.369C279.015 262.482 279.661 270.452 280.737 278.637C230.789 278.852 204.308 266.144 194.404 260.329C194.404 256.667 194.619 254.944 194.619 254.944Z" fill="#402B2B" fill-opacity="0.45" style="mix-blend-mode:multiply"/>
</g>
<path d="M203.021 38.045H223.689L226.488 25.5524C226.488 25.5524 218.307 30.291 216.369 27.0602C214.432 23.8294 214.862 25.1217 212.925 25.5524C210.987 25.9832 210.987 23.3986 208.619 24.9063C206.035 26.6294 202.16 34.8141 203.021 38.045Z" fill="#6B1912"/>
<path d="M162.632 194.023L174.41 165.508L207.528 177.922C206.386 187.056 186.187 204.561 174.41 216.959L162.632 194.023Z" fill="url(#paint3_linear_413_1639)"/>
<path d="M190.216 110.923C190.216 110.923 172.081 143.814 161.452 192.165C158.182 207.043 158.973 214.729 163.932 218.201C170.131 222.54 181.287 218.82 186.866 207.043C192.547 194.026 203.048 165.792 205.404 152.222C205.404 152.222 201.328 113.362 190.216 110.923Z" fill="url(#paint4_linear_413_1639)"/>
<path d="M190.104 110.415C190.104 110.415 191.181 135.184 194.41 254.295C194.41 254.295 223.69 269.156 282.035 258.818C282.035 258.818 282.251 223.063 290.216 191.401C290.216 191.401 305.072 131.738 297.536 114.292C297.536 114.292 249.956 84.7834 190.104 110.415Z" fill="url(#paint5_linear_413_1639)"/>
<path d="M235.315 86.8077L234.884 102.23C234.884 102.23 238.544 107.615 247.371 108.261C256.198 108.692 260.504 103.738 260.504 103.738L261.365 80.7769C250.385 85.5154 239.621 87.4539 235.315 86.8077Z" fill="url(#paint6_linear_413_1639)"/>
<path d="M236.177 80.4761L235.316 97.4918C239.622 98.138 250.386 96.1995 261.151 91.4609L261.797 80.4761H236.177V80.4761Z" fill="url(#paint7_linear_413_1639)" style="mix-blend-mode:multiply"/>
<path d="M294.522 147.892C294.522 147.892 281.82 176.539 277.298 189.462C272.777 202.17 272.777 252.786 249.095 262.479C249.095 262.479 274.284 260.971 282.25 258.817C282.25 258.817 282.681 220.693 290.431 191.4C290.431 191.4 295.814 160.6 297.967 146.6L294.522 147.892Z" fill="#EE4D47" fill-opacity="0.29" style="mix-blend-mode:multiply"/>
<path d="M277.729 42.9995C277.299 43.2149 276.868 50.1073 276.868 50.1073L275.146 64.5383L267.18 70.7846L262.659 72.7231C262.659 72.7231 255.985 69.923 256.846 67.3384C257.707 64.9691 262.013 30.9377 262.874 30.9377C263.735 30.9377 270.625 35.8916 270.625 35.8916L277.729 42.9995Z" fill="#402B2B"/>
<path d="M214.649 30.0754C212.711 30.0754 215.725 53.7682 215.725 53.7682L219.17 44.2911L221.538 32.8755L214.649 30.0754Z" fill="#402B2B"/>
<path d="M217.878 34.8125L214.218 65.1823C214.218 65.1823 212.926 90.8136 234.025 92.3213C255.124 93.6136 269.549 72.7209 269.549 72.7209C269.549 72.7209 272.132 75.7363 274.931 70.567C277.514 65.3977 275.792 58.5053 272.132 57.8591C268.257 57.4283 266.534 59.5822 266.104 62.813C265.673 66.0438 265.243 68.4131 265.243 68.4131L262.013 67.9824L264.381 42.9973C264.381 42.9973 259.43 33.3048 253.832 31.3663C248.234 29.4278 243.283 37.1818 243.283 37.1818C243.283 37.1818 238.116 38.2587 233.164 37.1818C228.212 36.1048 224.983 34.8125 224.983 34.8125C224.983 34.8125 221.968 35.674 217.878 34.8125Z" fill="url(#paint8_linear_413_1639)"/>
<path d="M233.977 210.76C233.977 210.76 201.124 205.801 201.124 200.842C201.124 195.883 207.942 184.105 212.901 170.468C217.86 156.831 222.2 135.135 224.059 130.795C225.919 126.456 218.48 138.854 218.48 138.854C206.289 154.764 181.411 187.701 179.428 192.164C177.444 196.627 176.535 207.248 176.328 212L185.007 216.959L210.422 213.86L233.977 210.76Z" fill="#EE4D47" fill-opacity="0.29" style="mix-blend-mode:multiply"/>
<path d="M223.38 79.3455C223.38 76.8657 225.907 73.1598 230.199 74.3862C234.538 75.6264 235.571 79.3453 235.778 81.8248" stroke="#893D43"/>
<path d="M217.182 115.299C217.182 115.299 163.253 184.745 162.013 195.884C160.773 207.023 159.871 218.009 171.142 219.365C182.412 220.722 193.119 202.975 197.064 193.932L206.024 171.088L224.62 125.837L217.182 115.299Z" fill="url(#paint9_linear_413_1639)"/>
<path d="M224.679 130.175C224.679 123.976 217.24 121.497 211.041 121.497L172.609 174.807C164.757 185.758 151.285 211.008 165.17 219.439C179.056 227.869 194.511 206.421 199.884 195.263C202.859 188.32 217.654 148.978 224.679 130.175Z" fill="url(#paint10_linear_413_1639)"/>
<path d="M217.241 116.538C217.241 116.538 213.453 101.816 217.477 92.2366C217.477 92.2366 219.673 87.9526 222.041 89.7939C224.678 91.4915 226.75 87.6197 229.387 89.3173C232.023 91.0149 234.133 88.5043 236.746 91.7691C236.746 91.7691 239.719 90.8692 241.425 93.41C243.132 95.9508 247.039 101.632 246.19 102.949C245.341 104.267 242.459 110.818 241.715 111.043C240.972 111.268 239.611 111.306 238.997 108.871C238.997 108.871 238.93 111.325 237.645 114.085C236.565 116.907 233.051 120.342 233.051 120.342L224.059 126.455L217.241 116.538Z" fill="url(#paint11_linear_413_1639)"/>
<path d="M240.051 27.0598V5.09009C253.184 5.73625 266.748 8.32089 273.422 16.5057C281.388 26.1982 276.867 48.5987 276.867 48.5987C276.867 48.5987 267.178 47.5217 265.456 44.2909C263.734 41.0601 247.371 36.5368 234.884 37.183C222.397 37.8292 216.369 36.5369 210.125 31.1522C208.833 30.0752 207.757 28.5675 206.896 26.8444H240.051V27.0598Z" fill="#402B2B"/>
<path d="M278.374 40.4139C278.374 40.4139 269.116 37.3984 253.615 36.1061C227.564 25.1213 216.369 27.0598 216.369 27.0598C216.369 27.0598 216.584 18.6596 218.952 12.8441C221.321 7.02862 237.253 -1.15615 250.601 0.136188C263.949 1.42852 277.728 11.3364 279.881 20.8135C281.603 28.1367 278.374 40.4139 278.374 40.4139Z" fill="url(#paint12_linear_413_1639)"/>
<path d="M262.658 37.1858C259.859 23.8317 239.837 17.1547 225.627 17.37C211.633 17.5854 201.73 29.2164 200.223 37.1858C199.577 40.4166 202.16 40.8474 203.022 38.0473C203.667 36.1088 204.959 26.8471 217.877 27.9241C230.795 29.001 230.149 40.632 236.608 41.709C242.636 42.7859 249.525 38.4781 262.658 37.1858Z" fill="url(#paint13_linear_413_1639)"/>
<path d="M218.543 45.1001L217.872 43.7499C218.451 43.4625 222.598 40.6804 228.571 39.1555L229.433 41.3731C224.327 42.2262 218.543 45.1001 218.543 45.1001Z" fill="#402B2B"/>
<path d="M255.193 50.7672C252.613 47.1616 246.459 43.0547 246.551 42.8601L248.252 41.2821C248.446 41.3743 253.925 45.3994 256.617 49.7733L255.193 50.7672Z" fill="#402B2B"/>
<path d="M234.241 52.907C234.241 52.907 233.595 57.4301 231.873 58.7225C230.151 60.0148 227.136 61.0917 226.706 62.1687C226.275 63.0303 227.136 64.7534 229.074 65.3995C231.012 66.0457 231.227 66.6919 231.227 66.6919C231.227 66.6919 227.352 67.1227 225.414 64.7534C223.476 62.3841 225.629 60.4456 227.567 59.3687C229.505 58.2917 230.366 57.8609 231.227 57.2148C232.304 56.5686 234.241 52.907 234.241 52.907Z" fill="#D87C60"/>
<path d="M243.496 55.2738C243.496 57.4277 245.003 59.3662 246.941 59.3662C248.879 59.3662 250.386 57.6431 250.386 55.2738C250.386 53.1199 248.879 51.1814 246.941 51.1814C245.003 51.1814 243.496 52.9045 243.496 55.2738Z" fill="#402B2B"/>
<path d="M219.815 52.4745C219.815 54.6283 221.322 56.5668 223.259 56.5668C225.197 56.5668 226.704 54.8437 226.704 52.4745C226.704 50.3206 225.197 48.3821 223.259 48.3821C221.322 48.5975 219.815 50.3206 219.815 52.4745Z" fill="#402B2B"/>
<path d="M208.136 220.68C206.483 217.993 203.425 210.513 204.416 202.083C206.483 204.976 210.119 212.745 208.136 220.68Z" fill="#644545"/>
<path fill-rule="evenodd" clip-rule="evenodd" d="M283.111 210.571C298.828 187.739 300.98 118.6 300.98 118.6C286.519 120.48 279.612 134.795 275.175 143.992C273.007 148.486 271.428 151.758 269.846 151.758L263.186 194.098L196.583 205.991C196.528 206.068 196.473 206.145 196.418 206.221C193.138 206.307 181.753 206.949 174.317 211.684C174.317 211.684 170.465 214.571 172.679 216.595C173.738 217.752 173.401 219.004 173.063 220.256C172.726 221.508 172.389 222.759 173.448 223.916C174.341 224.891 174.481 225.901 174.618 226.894C174.806 228.255 174.99 229.586 177.105 230.756C177.105 230.756 176.719 233.838 179.511 235.092C179.638 235.149 179.772 235.209 179.912 235.272C182.861 236.6 188.614 239.191 189.717 238.18C190.132 237.8 191.167 237.049 192.327 236.206C194.401 234.699 196.879 232.9 196.941 232.406C197.037 231.635 196.845 230.287 194.341 230.092C194.341 230.092 196.749 229.612 199.253 227.88C201.853 226.341 204.646 222.297 204.646 222.297L207.18 216.509C268.887 221.769 283.111 210.571 283.111 210.571Z" fill="url(#paint14_linear_413_1639)"/>
<path d="M265.027 150.263L258.998 181.925L256.294 189.894L204.223 202.083C205.67 204.769 208.439 212.249 207.943 220.68C219.514 221.919 251.707 222.043 273.031 217.58C278.759 216.48 285.428 210.761 293.876 189.894C313.037 123.985 297.536 114.293 297.536 114.293C276.007 117.093 265.027 150.263 265.027 150.263Z" fill="url(#paint15_linear_413_1639)"/>
<defs>
<linearGradient id="paint0_linear_413_1639" x1="299.686" y1="205.737" x2="299.686" y2="509.4" gradientUnits="userSpaceOnUse">
<stop stop-color="#F37753"/>
<stop offset="1" stop-color="white" stop-opacity="0"/>
</linearGradient>
<linearGradient id="paint1_linear_413_1639" x1="366.128" y1="203.103" x2="294.756" y2="374.02" gradientUnits="userSpaceOnUse">
<stop stop-color="#F7A58D"/>
<stop offset="0.926161" stop-color="white"/>
</linearGradient>
<linearGradient id="paint2_linear_413_1639" x1="264.058" y1="174.86" x2="264.058" y2="538.091" gradientUnits="userSpaceOnUse">
<stop stop-color="#822626"/>
<stop offset="0.943497" stop-color="#402B2B"/>
</linearGradient>
<linearGradient id="paint3_linear_413_1639" x1="181.001" y1="169.358" x2="181.001" y2="225.997" gradientUnits="userSpaceOnUse">
<stop stop-color="#FFB3B6"/>
<stop offset="1" stop-color="#FFC8C1"/>
</linearGradient>
<linearGradient id="paint4_linear_413_1639" x1="205.463" y1="115.92" x2="205.463" y2="227.499" gradientUnits="userSpaceOnUse">
<stop stop-color="#F4A984"/>
<stop offset="1" stop-color="#EE4D47"/>
</linearGradient>
<linearGradient id="paint5_linear_413_1639" x1="244.887" y1="38.0578" x2="244.887" y2="256.894" gradientUnits="userSpaceOnUse">
<stop stop-color="#F4A984"/>
<stop offset="1" stop-color="#EE4D47"/>
</linearGradient>
<linearGradient id="paint6_linear_413_1639" x1="256.947" y1="101.119" x2="235.16" y2="110.516" gradientUnits="userSpaceOnUse">
<stop stop-color="#FFB3B6"/>
<stop offset="1" stop-color="#FFC8C1"/>
</linearGradient>
<linearGradient id="paint7_linear_413_1639" x1="257.379" y1="90.3125" x2="235.469" y2="99.5913" gradientUnits="userSpaceOnUse">
<stop stop-color="#FFB3B6" stop-opacity="0.31"/>
<stop offset="1" stop-color="#FFC8C1"/>
</linearGradient>
<linearGradient id="paint8_linear_413_1639" x1="211.412" y1="84.9467" x2="216.072" y2="43.3041" gradientUnits="userSpaceOnUse">
<stop stop-color="#FFB3B6"/>
<stop offset="1" stop-color="#FFC8C1"/>
</linearGradient>
<linearGradient id="paint9_linear_413_1639" x1="200.657" y1="90.5034" x2="200.657" y2="217.367" gradientUnits="userSpaceOnUse">
<stop stop-color="#FFB3B6"/>
<stop offset="1" stop-color="#FFC8C1"/>
</linearGradient>
<linearGradient id="paint10_linear_413_1639" x1="173.848" y1="147.532" x2="220.29" y2="215.753" gradientUnits="userSpaceOnUse">
<stop stop-color="#F4A984"/>
<stop offset="0.91698" stop-color="#EE4D47"/>
</linearGradient>
<linearGradient id="paint11_linear_413_1639" x1="227.5" y1="114" x2="245" y2="84" gradientUnits="userSpaceOnUse">
<stop stop-color="#FFB3B6"/>
<stop offset="1" stop-color="#FFC8C1"/>
</linearGradient>
<linearGradient id="paint12_linear_413_1639" x1="248.378" y1="-21.7021" x2="248.378" y2="40.9239" gradientUnits="userSpaceOnUse">
<stop stop-color="#F4A984"/>
<stop offset="1" stop-color="#EE4D47"/>
</linearGradient>
<linearGradient id="paint13_linear_413_1639" x1="250.015" y1="11.1638" x2="250.015" y2="76.27" gradientUnits="userSpaceOnUse">
<stop stop-color="#F4A984"/>
<stop offset="1" stop-color="#EE4D47"/>
</linearGradient>
<linearGradient id="paint14_linear_413_1639" x1="279.777" y1="178.577" x2="168.166" y2="215.78" gradientUnits="userSpaceOnUse">
<stop stop-color="#FFB3B6"/>
<stop offset="1" stop-color="#FFC8C1"/>
</linearGradient>
<linearGradient id="paint15_linear_413_1639" x1="246.995" y1="153.112" x2="294.107" y2="224.399" gradientUnits="userSpaceOnUse">
<stop stop-color="#F4A984"/>
<stop offset="1" stop-color="#EE4D47"/>
</linearGradient>
</defs>
</svg>
